<svg width="55" height="55" viewBox="0 0 55 55" fill="none" xmlns="http://www.w3.org/2000/svg">
<path fill-rule="evenodd" clip-rule="evenodd" d="M19.4633 8.10604C13.0458 9.33976 9.74736 14.229 9.74736 22.6137C9.72492 31.2041 18.2292 36.4817 26.9803 33.306L28.5959 32.712C29.9198 34.1285 30.1443 34.1285 28.7306 34.9966C27.6087 35.682 27.7207 36.3903 28.4388 36.6644C29.4036 37.03 35.2602 42.7645 36.0457 44.1582C38.9402 49.2987 46.1655 47.4938 45.6718 43.4728C45.4474 41.645 44.0786 39.5203 42.463 38.0124C40.6679 36.3218 39.6582 34.9509 38.3343 32.3921C37.0553 29.9018 35.911 29.3535 34.2505 30.3816C33.5325 30.8157 33.4651 30.8385 33.0836 30.473C32.2983 29.7647 32.3432 29.285 33.308 27.7999C36.988 22.0425 37.19 17.0163 33.9363 13.0181C29.4036 7.44349 25.5218 9.454 28.1696 11.1903C34.6095 15.3941 34.273 23.9388 27.4067 30.3816C23.5921 33.9685 15.918 32.0494 13.9434 27.0231C10.8244 19.0268 15.9628 8.47159 24.2876 10.1622C27.1598 10.9162 28.3042 6.41538 19.4633 8.10604ZM18.5658 13.7949C17.6009 14.6174 18.2292 15.3256 20.0243 14.069C21.2808 13.2009 21.8868 13.0409 23.0312 13.3151C24.5345 13.6578 25.4544 13.2694 24.9833 12.4926C24.8261 12.2185 21.5276 11.2589 18.5658 13.7949ZM27.5637 13.4979C26.352 13.4293 26.0378 14.1147 26.8681 15.0058C27.9003 16.1252 29.9647 16.308 29.8525 15.2799C29.7852 14.5717 28.4836 13.5436 27.5637 13.4979ZM35.3725 32.6434C35.5519 33.3974 37.3246 36.0476 38.2671 37.03C39.4115 38.1952 39.9051 38.972 41.386 40.6169C44.3928 43.9754 40.8026 47.311 37.9753 43.1072C34.4075 37.8068 31.0865 36.139 31.1314 35.5221C31.1988 34.7453 35.2154 32.0037 35.3725 32.6434Z" fill="#006B99"/>
</svg>
