<svg width="55" height="55" viewBox="0 0 55 55" fill="none" xmlns="http://www.w3.org/2000/svg">
<path fill-rule="evenodd" clip-rule="evenodd" d="M15.6241 9.52405C13.142 9.93714 14.8128 11.6138 16.8651 11.9054C18.5835 12.1484 21.8769 12.1484 28.965 12.1241C37.6044 12.0998 41.3035 12.197 41.8524 12.44C43.2128 13.0718 43.8095 15.5018 44.1914 22.087C44.3346 24.4197 44.6209 27.9189 44.8357 29.8628C45.5039 36.1078 44.8835 36.7153 37.0317 37.0312C34.0007 37.1527 30.0629 37.3957 28.2968 37.5658C20.0393 38.3677 14.9081 38.2218 12.0443 37.0555C9.65768 36.0835 9.77706 35.3059 9.70546 33.6778C9.5384 30.5189 9.60998 24.0795 9.92021 18.2233C10.1827 13.3148 10.493 12.3428 12.0443 11.6138C12.9988 11.1764 12.6648 10.6661 11.4715 10.7147C9.68158 10.8119 8.29739 11.4194 8.03487 14.2625C7.70074 17.7616 5.57663 36.9826 9.39514 38.6107C11.901 39.6799 16.2685 40.7247 17.9867 40.7247C19.18 40.7247 19.1324 42.0855 17.9391 42.45C15.1946 43.2519 17.1277 45.1959 20.7552 45.3417C28.1059 45.5846 38.8455 44.9772 38.941 44.2725C39.0364 43.5678 37.4851 41.964 36.6737 41.964C36.4112 41.964 36.244 41.6481 36.244 41.1864C36.244 40.5303 36.2441 39.6069 36.9838 39.6069C40.158 39.6069 41.8524 39.4611 42.8071 39.2424C47.4608 38.2218 47.6519 35.0143 47.6041 33.1433C47.4371 25.4889 46.029 18.1747 46.029 16.4495C46.0051 13.4606 44.2869 10.5203 40.6115 9.98574C39.1796 9.54835 18.0823 9.11095 15.6241 9.52405ZM28.082 24.3954C27.7956 24.0795 25.0272 20.9449 24.2635 20.143C23.3089 19.1467 22.3304 19.4626 20.2779 21.3822C19.2278 22.3785 17.5811 23.8608 16.6026 24.7113C13.2137 27.6273 12.9511 28.9394 15.7434 28.9394C16.6981 28.9394 17.1515 28.5992 19.9916 25.6347C23.6669 21.7953 23.3327 21.8196 26.5308 24.9786C28.6786 27.0926 28.4161 27.117 31.9006 24.3468C34.9076 21.5038 36.6259 19.6084 38.7977 17.3971C40.9456 15.2102 37.6521 14.2139 35.91 15.7204C33.8575 17.4457 28.1059 24.3711 28.082 24.3954ZM35.8145 23.2533C35.3849 24.3711 35.5997 31.8311 36.077 32.2928C37.2465 33.4835 37.9624 30.932 37.8908 25.8777C37.8431 23.0832 36.5066 21.4066 35.8145 23.2533ZM21.9962 26.2908C21.2565 28.2834 21.8769 33.7265 23.3805 33.4592C24.8839 33.1919 23.8578 27.1898 23.5237 26.3151C23.3089 25.6833 22.2349 25.659 21.9962 26.2908ZM31.7095 26.8496C31.3038 27.3599 30.8982 31.1264 31.1607 32.147C31.6142 33.9694 33.4995 33.1676 33.4995 31.1507C33.4995 27.7731 32.6403 25.7076 31.7095 26.8496ZM18.13 29.4497C17.772 29.8142 17.9151 32.5358 18.3447 33.1189C19.1084 34.1881 19.7767 33.5078 19.7767 31.6367C19.7528 29.6927 18.9414 28.5993 18.13 29.4497ZM26.3636 29.4497C25.7431 30.0815 26.1727 32.6815 26.9364 33.046C28.1536 33.6049 28.5593 32.0741 27.8195 29.6441C27.7001 29.2067 26.7216 29.0852 26.3636 29.4497ZM32.5211 40.0201C33.4757 40.2874 33.1177 41.1621 33.2132 41.964L22.1872 42.1584C22.1872 42.0855 22.3782 40.1658 22.3782 40.2873C23.1418 40.263 30.1345 39.9715 31.0891 39.8986C31.471 39.85 32.1392 39.9229 32.5211 40.0201Z" fill="#006B99"/>
</svg>
